<svg xmlns="http://www.w3.org/2000/svg" viewBox="0 0 424.54 322.3"><defs><style>.cls-1{fill:#339;}.cls-2{fill:#fff;}</style></defs><title>Recurso 1</title><g id="Capa_2" data-name="Capa 2"><g id="Capa_1-2" data-name="Capa 1"><path class="cls-1" d="M353.62,115.2s35.73,70.86,70.86,70.75l-17.58,17.7c-17.56.1-26.64-8.87-26.64-8.87,14.32,21.5,44.28,26.6,44.28,26.6l-17.69,35.55h0c-152.64,64.62-235,65.55-389,.16l-.13,0L0,221.5s30.23-5.22,44.28-26.6c0,0-9.09,8.86-26.64,8.86L.06,186.06c35.37,0,70.86-70.75,70.86-70.75L212.36,44.39Z"/><path class="cls-2" d="M353.87,186.09c0,78.27-63.36,133.71-141.51,133.71S70.86,264.36,70.86,186.09s63.35-141.7,141.5-141.7S353.87,107.83,353.87,186.09Z"/><path class="cls-1" d="M212.36,322.3c-39,0-75.1-13.55-101.75-38.17-27.25-25.15-42.25-60-42.25-98,0-79.51,64.6-144.2,144-144.2s144,64.69,144,144.2c0,38.07-15,72.89-42.25,98C287.46,308.75,251.32,322.3,212.36,322.3Zm0-275.41c-76.65,0-139,62.45-139,139.2,0,74.8,59.76,131.21,139,131.21s139-56.41,139-131.21C351.37,109.34,289,46.89,212.36,46.89Z"/><path class="cls-2" d="M203.67,265.7h0a70.53,70.53,0,0,0,2.14,17.23l.14.55a6.81,6.81,0,0,0,6.61,5.15h0a6.81,6.81,0,0,0,6.61-5.16l.12-.47a70.45,70.45,0,0,0,2.12-17.29h0"/><path class="cls-1" d="M212.56,291.13a9.31,9.31,0,0,1-9-7l-.14-.55a73.5,73.5,0,0,1-2.21-17.84h5a68,68,0,0,0,2.06,16.62l.14.55a4.32,4.32,0,0,0,8.38,0l.11-.47a68,68,0,0,0,2-16.67l5,0a73,73,0,0,1-2.2,17.91l-.11.47A9.31,9.31,0,0,1,212.56,291.13Z"/><path class="cls-1" d="M336.65,144.41l-2.44-5.52a17,17,0,0,0-21.67-9l-100,38.47-99.92-38.43A17,17,0,0,0,91,139.06l-2.35,5.43,123.71,36.36Z"/><path class="cls-2" d="M212.31,180.85h0L78.08,141.27s-3.24,11-4,14.56C69,180,72,203.86,72,203.86s46.21,41.19,79,50.8c11.53,3.38,23.37,5.07,31.86-3.43l18.39-18.42a8.56,8.56,0,0,1,6-2.49h10.7a8.47,8.47,0,0,1,6,2.5l18.33,18.37c8.49,8.52,20.43,7.06,31.89,3.41,32.16-10.22,78.64-50.75,78.64-50.75s2.77-21-.83-42.08c-.61-3.6-5.07-20.51-5.07-20.51Z"/><path class="cls-1" d="M258.49,260c-6.33,0-12.74-1.73-18-7L222.15,234.6a6.06,6.06,0,0,0-4.25-1.77H207.19a6,6,0,0,0-4.25,1.76L184.54,253c-9.61,9.62-22.74,7.45-34.32,4.06-32.91-9.66-78-49.64-79.93-51.34l-.7-.62-.11-.94c-.13-1-2.94-24.53,2.17-48.85.75-3.59,3.9-14.29,4-14.74l.7-2.4,135.92,40.08,136.32-40.1.66,2.48c.18.7,4.49,17.06,5.12,20.73,3.62,21.25.95,41.95.84,42.82l-.13.94-.71.62c-1.91,1.67-47.24,41-79.52,51.26A55.29,55.29,0,0,1,258.49,260Zm-51.3-32.17h10.72a10.93,10.93,0,0,1,7.77,3.23L244,249.43c6.35,6.38,15.41,7.24,29.37,2.8,29.13-9.26,71-44.49,77-49.63.47-4.26,2.15-22.39-.92-40.4-.41-2.41-2.76-11.63-4.38-17.8L212.3,183.46l-.7-.21L79.78,144.38c-1,3.42-2.73,9.55-3.24,12-4.38,20.83-2.66,41.69-2.2,46.28,6,5.21,47.65,40.95,77.29,49.64,10.68,3.13,21.63,5,29.38-2.8l18.39-18.41A11,11,0,0,1,207.19,227.82Z"/><path class="cls-1" d="M296,233.7c-8.86,5.83-17.4,10.58-24.42,12.81A44.49,44.49,0,0,1,258.44,249c-4.36,0-7.6-1.2-10.18-3.8h0A62.64,62.64,0,0,1,230,200.88V191a5.68,5.68,0,0,1,4-5.41l10.57-3.33Z"/><path class="cls-1" d="M258.44,251.49c-4.59,0-8.25-1.24-11.17-3.8h-.05l-.74-.73a64.76,64.76,0,0,1-19-46.08V191a8.15,8.15,0,0,1,5.72-7.79l12-3.79,54.71,54.71-2.56,1.69c-10.05,6.61-18.47,11-25,13.1A46.87,46.87,0,0,1,258.44,251.49Zm-8.91-8.56.51.5c2.1,2.12,4.69,3.06,8.4,3.06a42.18,42.18,0,0,0,12.37-2.36c5.58-1.78,12.71-5.42,21.22-10.85l-48.21-48.21L234.69,188a3.17,3.17,0,0,0-2.22,3v9.91A59.76,59.76,0,0,0,249.53,242.93Z"/><path class="cls-1" d="M345.46,195.7c-4.54,3.67-11.22,9.25-18.94,15.42l-41.61-41.61,55.93-17.6c1.27,5,2.47,9.83,2.72,11.3C346.1,178.12,348.06,193.6,345.46,195.7Z"/><path class="cls-1" d="M326.34,214.47l-46.11-46.11,62.38-19.63.65,2.56c1.64,6.43,2.54,10.19,2.77,11.5,4.92,28.93,3.1,33.16,1,34.85-1.67,1.35-3.62,3-5.82,4.76-3.86,3.17-8.24,6.77-13.13,10.67Zm-36.75-43.81,37.12,37.11c4.16-3.35,8-6.46,11.33-9.23,2.14-1.76,4.06-3.34,5.71-4.67.39-.82,1.56-5.53-2.65-30.24-.12-.7-.58-2.78-2-8.54Zm54.3,23.1Z"/><path class="cls-1" d="M195.16,191v9.91a62.68,62.68,0,0,1-18.33,44.28l-.07.07c-2.56,2.56-5.64,3.7-10,3.7-3.53,0-7.8-.77-13.43-2.42-7-2.05-15.38-6.67-24.08-12.43L181,182.35l10.23,3.21A5.67,5.67,0,0,1,195.16,191Z"/><path class="cls-1" d="M166.75,251.42c-3.77,0-8.27-.8-14.13-2.52-6.57-1.93-14.9-6.22-24.76-12.74l-2.55-1.69,55-55,11.67,3.66a8.14,8.14,0,0,1,5.72,7.79v9.91a64.79,64.79,0,0,1-19.06,46l-.08.08C175.51,250,171.76,251.42,166.75,251.42Zm-33.56-17.76C141.5,239,148.5,242.48,154,244.1s9.44,2.32,12.72,2.32c3.7,0,6.16-.89,8.24-3l.09-.08a59.78,59.78,0,0,0,17.58-42.5V191a3.13,3.13,0,0,0-2.22-3l-8.78-2.76Z"/><path class="cls-1" d="M140.54,169.65,98.93,211.26c-8.09-6.63-15.08-12.65-19.74-16.49-2.55-2.09-.45-19.69,3.23-37.2.22-1.08.8-3.27,1.48-5.72Z"/><path class="cls-1" d="M99.1,214.63l-1.75-1.44c-4.82-3.95-9.18-7.62-13-10.86-2.57-2.17-4.83-4.08-6.72-5.63-1.48-1.21-2.7-3.87-1.62-15a237.18,237.18,0,0,1,4-24.65c.2-1,.71-3,1.51-5.88l.7-2.49,63,19.81ZM81,193c1.86,1.53,4.08,3.41,6.58,5.51,3.37,2.84,7.12,6,11.23,9.39l37.09-37.09L85.63,155c-.46,1.73-.67,2.61-.76,3.06C80.59,178.46,80,190.8,81,193Zm-.18-.15Z"/><path class="cls-1" d="M120.88,271.7h0a4.23,4.23,0,0,0,0,6l0,0a4.22,4.22,0,0,0,6,0h0a4.23,4.23,0,0,0,0-6l0,0A4.24,4.24,0,0,0,120.88,271.7Z"/><path class="cls-1" d="M298.07,271.7h0a4.23,4.23,0,0,0,0,6l0,0a4.23,4.23,0,0,0,6,0h0a4.24,4.24,0,0,0,0-6l0,0A4.24,4.24,0,0,0,298.07,271.7Z"/><path class="cls-1" d="M129.84,262.76h0a4.24,4.24,0,0,0,0,6l0,0a4.25,4.25,0,0,0,6,0h0a4.24,4.24,0,0,0,0-6l0,0A4.24,4.24,0,0,0,129.84,262.76Z"/><path class="cls-1" d="M289.19,262.76h0a4.24,4.24,0,0,0,0,6l0,0a4.24,4.24,0,0,0,6,0h0a4.23,4.23,0,0,0,0-6l0,0A4.24,4.24,0,0,0,289.19,262.76Z"/><path class="cls-1" d="M336.49,79.93h0q8.83,9.09,16.93,18.86l7.67,9.26-7.73,7.28a70.93,70.93,0,0,1-31.95-7.55L301.22,97.63l17.58,17.58-26.57,8.85c-17.62-17.79-35.43-17.73-35.43-17.73s26.57,8.89,17.8,35.48L248,150.65c0-35.43-26.62-44.3-26.62-44.3s16,26.55,4,49.48H200c-12.29-22.89,3.66-49.5,3.66-49.5s-26.56,8.89-26.57,44.32l-26.59-8.87c-8.83-26.56,17.76-35.45,17.76-35.45s-17.76,0-35.41,17.77l-26.56-8.88,17.6-17.59-20.73,10.29a75.18,75.18,0,0,1-32.25,7.39l-8.9-9L79.89,88.56C83.5,85,89.16,78.86,92.6,75.1c17.78-19.47,49.31-34.16,74.23-39.21l23.3-4.71a113.28,113.28,0,0,1,44.82,0l23.5,4.72C285.86,41.36,319.77,57.53,336.49,79.93Z"/><path class="cls-2" d="M181,182.35l-51.72,51.72c-10.3-6.8-21-15.21-30.31-22.81l41.61-41.61Z"/><path class="cls-1" d="M129.57,237.28l-1.71-1.12a380.79,380.79,0,0,1-30.51-23l-2.14-1.75,44.64-44.63,45.8,14.39Zm-26.91-26.21c10.08,8.19,18.72,14.7,26.26,19.78l47.36-47.35-35-11Z"/><path class="cls-2" d="M326.52,211.12c-9.32,7.45-20.15,15.76-30.54,22.58l-51.47-51.47,40.4-12.72Z"/><path class="cls-1" d="M295.65,236.91l-55.82-55.83,45.78-14.41,44.66,44.66-2.19,1.74c-12,9.58-22,17-30.73,22.72Zm-46.46-53.53,47.11,47.11c7.63-5.1,16.33-11.54,26.47-19.58l-38.55-38.56Z"/><path class="cls-2" d="M194.71,261.59c.13,4.9,35.45,5.15,35.66.11"/><path class="cls-1" d="M213.2,267.87h-.94c-13.19-.1-19.94-2.19-20-6.21a2.5,2.5,0,0,1,4.89-.81c3.75,2.62,27.2,2.72,30.88.12a2.56,2.56,0,0,1,2.49-1.77,2.52,2.52,0,0,1,2.4,2.6C232.7,265.83,226.08,267.87,213.2,267.87Z"/><path class="cls-2" d="M309.67,53.22l-17.38-.07-4.9-14.25a56.73,56.73,0,0,0-13.3-21.45h0a9.74,9.74,0,0,0-15,1.45L237.2,51.8a10.18,10.18,0,0,1-15.73,1.5l-.07-.07,29.83-41.94a20.93,20.93,0,0,1,31.86-2.65h0a84.89,84.89,0,0,1,16.67,23.67Z"/><path class="cls-1" d="M228.71,58.84a12.6,12.6,0,0,1-9-3.78l-1.54-1.57,31-43.64a23.42,23.42,0,0,1,35.66-3A87.34,87.34,0,0,1,302,31.24l11.61,24.49-23.13-.08L285,39.71a54.46,54.46,0,0,0-12.72-20.5,7.22,7.22,0,0,0-11.16,1.08L239.28,53.18a12.58,12.58,0,0,1-9.35,5.6C229.52,58.82,229.11,58.84,228.71,58.84Zm-3.91-6.07a7.68,7.68,0,0,0,10.31-2.35L257,17.52a12.23,12.23,0,0,1,18.88-1.83,59.76,59.76,0,0,1,13.89,22.39l4.31,12.58,11.64,0L297.5,33.38a82.09,82.09,0,0,0-16.18-23,18.42,18.42,0,0,0-28,2.33Z"/><circle class="cls-2" cx="301.08" cy="53.23" r="17.7"/><path class="cls-1" d="M301.08,73.44a20.21,20.21,0,1,1,20.2-20.21A20.23,20.23,0,0,1,301.08,73.44Zm0-35.41a15.21,15.21,0,1,0,15.2,15.2A15.22,15.22,0,0,0,301.08,38Z"/><path class="cls-2" d="M115,53.29l17.39-.06,4.85-14.13a56.61,56.61,0,0,1,13.49-21.63h0a10,10,0,0,1,15.39,1.58l21.38,32.69a10.18,10.18,0,0,0,15.77,1.57h0L173.45,11.37A20.92,20.92,0,0,0,141.6,8.71h0a85.28,85.28,0,0,0-16.68,23.67Z"/><path class="cls-1" d="M196.05,58.85c-.42,0-.85,0-1.28-.06a12.64,12.64,0,0,1-9.35-5.68L164,20.42a7.46,7.46,0,0,0-11.52-1.19,54.67,54.67,0,0,0-12.9,20.68l-5.42,15.81-23.13.09,11.61-24.5A86.94,86.94,0,0,1,139.83,7a23.43,23.43,0,0,1,35.66,3l31.06,43.66-1.5,1.49A12.56,12.56,0,0,1,196.05,58.85ZM157.77,12a11.45,11.45,0,0,1,1.3.07,12.41,12.41,0,0,1,9.15,5.57l21.39,32.69a7.67,7.67,0,0,0,10.26,2.45l-28.46-40a18.42,18.42,0,0,0-28-2.34,82.33,82.33,0,0,0-16.19,23L119,50.78l11.64,0,4.27-12.45A59.48,59.48,0,0,1,149,15.7,12.4,12.4,0,0,1,157.77,12Z"/><circle class="cls-2" cx="123.72" cy="53.18" r="17.89"/><path class="cls-1" d="M123.72,73.57a20.39,20.39,0,1,1,20.4-20.39A20.42,20.42,0,0,1,123.72,73.57Zm0-35.78a15.39,15.39,0,1,0,15.4,15.39A15.41,15.41,0,0,0,123.72,37.79Z"/><path class="cls-1" d="M212.59,282.75a1.5,1.5,0,0,1-1.5-1.5V270.47a1.5,1.5,0,0,1,3,0v10.78A1.5,1.5,0,0,1,212.59,282.75Z"/></g></g></svg>